<svg xmlns="http://www.w3.org/2000/svg" width="24" height="24" viewBox="0 0 24 24">
    <g fill="none" fill-rule="evenodd">
        <g fill="#0C0D0D" fill-rule="nonzero" stroke="#0C0D0D" stroke-width=".5">
            <g>
                <path d="M0 13.471L0 .368 6.3.368 6.3.917.607.917.607 6.634 6.11 6.634 6.11 7.173.607 7.173.607 12.927 6.3 12.927 6.3 13.473zM15.632 13.727c-.927.01-1.847-.166-2.705-.515-.811-.327-1.547-.816-2.164-1.436-.614-.618-1.1-1.351-1.426-2.159-.341-.853-.512-1.764-.503-2.683-.009-.918.162-1.83.503-2.683.658-1.64 1.953-2.941 3.59-3.607 1.609-.63 3.387-.68 5.03-.144.692.235 1.341.583 1.921 1.03l-.332.5c-.524-.425-1.12-.75-1.76-.96-.68-.226-1.392-.34-2.108-.338-.86-.01-1.713.157-2.507.488-.733.303-1.396.75-1.951 1.317-.55.565-.982 1.233-1.274 1.965-.604 1.561-.604 3.291 0 4.852.292.732.724 1.4 1.274 1.966.555.565 1.218 1.013 1.95 1.317.792.33 1.641.495 2.498.487.713.005 1.423-.106 2.1-.329.641-.209 1.238-.534 1.761-.958l.332.5c-.579.444-1.226.79-1.917 1.026-.745.249-1.527.371-2.312.364h0z" transform="translate(2 5)"/>
            </g>
        </g>
    </g>
</svg>
