<?xml version="1.0" encoding="UTF-8"?>
<svg width="15px" height="15px" viewBox="0 0 15 15" version="1.1" xmlns="http://www.w3.org/2000/svg" xmlns:xlink="http://www.w3.org/1999/xlink">
    <title>instagram</title>
    <g id="Symbols" stroke="none" stroke-width="1" fill="none" fill-rule="evenodd">
        <g id="Footer" transform="translate(-1234.000000, -350.000000)" fill="#E9E9EA" fill-rule="nonzero">
            <g id="Group-40" transform="translate(1144.000000, 350.000000)">
                <g id="instagram" transform="translate(90.000000, 0.000000)">
                    <path d="M8.91767578,7.485 C8.91767578,8.27626099 8.27626099,8.91767578 7.485,8.91767578 C6.69373901,8.91767578 6.05232422,8.27626099 6.05232422,7.485 C6.05232422,6.69373901 6.69373901,6.05232422 7.485,6.05232422 C8.27626099,6.05232422 8.91767578,6.69373901 8.91767578,7.485 Z" id="Path"></path>
                    <path d="M10.8355243,4.95017808 C10.7666544,4.7635556 10.6567825,4.59463599 10.5140174,4.4559826 C10.375364,4.31321754 10.2065586,4.20334557 10.0198219,4.13447571 C9.86837677,4.0756565 9.64086639,4.00564453 9.22182244,3.98657111 C8.76851488,3.96589874 8.63260254,3.96144447 7.485,3.96144447 C6.33728326,3.96144447 6.20137092,3.96578454 5.74817756,3.98645691 C5.32913361,4.00564453 5.10150903,4.0756565 4.95017808,4.13447571 C4.7634414,4.20334557 4.59452179,4.31321754 4.4559826,4.4559826 C4.31321754,4.59463599 4.20334557,4.7634414 4.1343615,4.95017808 C4.0755423,5.10162323 4.00553033,5.32924781 3.98645691,5.74829176 C3.96578454,6.20148512 3.96133026,6.33739746 3.96133026,7.4851142 C3.96133026,8.63271674 3.96578454,8.76862908 3.98645691,9.22193665 C4.00553033,9.6409806 4.0755423,9.86849097 4.1343615,10.0199361 C4.20334557,10.2066728 4.31310333,10.3754782 4.45586839,10.5141316 C4.59452179,10.6568967 4.76332716,10.7667687 4.95006385,10.8356385 C5.10150903,10.8945719 5.32913361,10.9645839 5.74817756,10.9836573 C6.20137092,11.0043297 6.33716905,11.0086697 7.4848858,11.0086697 C8.63271674,11.0086697 8.76862908,11.0043297 9.22170824,10.9836573 C9.64075219,10.9645839 9.86837677,10.8945719 10.0198219,10.8356385 C10.3946658,10.6910461 10.6909319,10.39478 10.8355243,10.0199361 C10.8943435,9.86849097 10.9643555,9.6409806 10.9835431,9.22193665 C11.0042155,8.76862908 11.0085555,8.63271674 11.0085555,7.4851142 C11.0085555,6.33739746 11.0042155,6.20148512 10.9835431,5.74829176 C10.9644697,5.32924781 10.8944577,5.10162323 10.8355243,4.95017808 L10.8355243,4.95017808 Z M7.485,9.69203339 C6.26601495,9.69203339 5.27785241,8.70398505 5.27785241,7.485 C5.27785241,6.26601495 6.26601495,5.27796661 7.485,5.27796661 C8.70387085,5.27796661 9.69203339,6.26601495 9.69203339,7.485 C9.69203339,8.70398505 8.70387085,9.69203339 7.485,9.69203339 Z M9.77929138,5.70649017 C9.49444655,5.70649017 9.26350983,5.47555345 9.26350983,5.19070862 C9.26350983,4.90586379 9.49444655,4.67492706 9.77929138,4.67492706 C10.0641362,4.67492706 10.2950729,4.90586379 10.2950729,5.19070862 C10.2949587,5.47555345 10.0641362,5.70649017 9.77929138,5.70649017 Z" id="Shape"></path>
                    <path d="M7.485,0 C3.35178063,0 0,3.35178063 0,7.485 C0,11.6182194 3.35178063,14.97 7.485,14.97 C11.6182194,14.97 14.97,11.6182194 14.97,7.485 C14.97,3.35178063 11.6182194,0 7.485,0 Z M11.7571012,9.25699975 C11.7363146,9.71453315 11.6635615,10.0269031 11.5573444,10.3003267 C11.3340598,10.8776685 10.8776685,11.3340598 10.3003267,11.5573444 C10.0270173,11.6635615 9.71453315,11.7362004 9.25711395,11.7571012 C8.79878106,11.778002 8.65236121,11.7830273 7.4851142,11.7830273 C6.31775299,11.7830273 6.17144738,11.778002 5.71300025,11.7571012 C5.25558105,11.7362004 4.94309692,11.6635615 4.66978753,11.5573444 C4.38288689,11.449414 4.12316871,11.280266 3.90845008,11.0615499 C3.68984826,10.8469455 3.52070021,10.5871131 3.41276984,10.3003267 C3.30655267,10.0270173 3.23379958,9.71453315 3.213013,9.25711395 C3.19188378,8.79866685 3.18697266,8.65224701 3.18697266,7.485 C3.18697266,6.31775299 3.19188378,6.17133315 3.2128988,5.71300025 C3.23368537,5.25546685 3.30632423,4.94309692 3.41254143,4.66967332 C3.5204718,4.38288689 3.68973402,4.1230545 3.90845008,3.90845008 C4.1230545,3.68973402 4.38288689,3.52058601 4.66967332,3.41265564 C4.94309692,3.30643846 5.25546685,3.23379958 5.71300025,3.2128988 C6.17133315,3.19199799 6.31775299,3.18697266 7.485,3.18697266 C8.65224701,3.18697266 8.79866685,3.19199799 9.25699975,3.213013 C9.71453315,3.23379958 10.0269031,3.30643846 10.3003267,3.41254143 C10.5871131,3.5204718 10.8469455,3.68973402 11.0616641,3.90845008 C11.280266,4.12316871 11.4495282,4.38288689 11.5573444,4.66967332 C11.6636758,4.94309692 11.7363146,5.25546685 11.7572154,5.71300025 C11.7781162,6.17133315 11.7830273,6.31775299 11.7830273,7.485 C11.7830273,8.65224701 11.7781162,8.79866685 11.7571012,9.25699975 L11.7571012,9.25699975 Z" id="Shape"></path>
                </g>
            </g>
        </g>
    </g>
</svg>