<?xml version="1.0" encoding="UTF-8"?>
<svg width="15px" height="15px" viewBox="0 0 15 15" version="1.1" xmlns="http://www.w3.org/2000/svg" xmlns:xlink="http://www.w3.org/1999/xlink">
    <title>twitter (1)</title>
    <g id="Symbols" stroke="none" stroke-width="1" fill="none" fill-rule="evenodd" opacity="0.900000036">
        <g id="Footer" transform="translate(-1174.000000, -350.000000)" fill="#FFFFFF" fill-rule="nonzero">
            <g id="Group-40" transform="translate(1144.000000, 350.000000)">
                <g id="twitter-(1)" transform="translate(30.000000, 0.000000)">
                    <path d="M7.44676991,0 C11.5594341,0 14.8934071,3.33397302 14.8934071,7.44663717 C14.8934071,11.5593013 11.5594341,14.8932743 7.44676991,14.8932743 C3.33410577,14.8932743 0.000132743363,11.5593013 0.000132743363,7.44663717 C0.000132743363,3.33397302 3.33410577,0 7.44676991,0 Z M9.33862832,4.51699115 C8.35579646,4.51699115 7.55867257,5.31411504 7.55867257,6.2969469 C7.55867257,6.43646018 7.57446903,6.57225664 7.605,6.70261062 C6.12570796,6.62840708 4.8140708,5.91982301 3.93610619,4.84261062 C3.78292035,5.10544248 3.69504425,5.41141593 3.69504425,5.73756637 C3.69504425,6.35495575 4.00951327,6.9 4.48685841,7.21911504 C4.19522124,7.20995575 3.92057522,7.1299115 3.68070796,6.99623894 L3.68057522,7.01880531 L3.68057522,7.01880531 C3.68057522,7.88123894 4.29438053,8.60057522 5.10849558,8.7639823 C4.95929204,8.80486726 4.80172566,8.82650442 4.63964602,8.82650442 C4.52469027,8.82650442 4.41331858,8.81548673 4.30473451,8.79477876 C4.53119469,9.50176991 5.18840708,10.0164159 5.96747788,10.030885 C5.35818584,10.5083628 4.59079646,10.7928319 3.75663717,10.7928319 C3.61327434,10.7928319 3.47123894,10.784469 3.33225664,10.7678761 C4.11955752,11.2730973 5.05539823,11.5676549 6.06053097,11.5676549 C9.33451327,11.5676549 11.1249558,8.85544248 11.1249558,6.50309735 C11.1249558,6.42597345 11.1232301,6.34911504 11.1197788,6.27292035 C11.4678319,6.0220354 11.7695575,5.70862832 12.0080973,5.35168142 C11.6889823,5.49318584 11.345708,5.58889381 10.985708,5.63163717 C11.3532743,5.41141593 11.635354,5.0629646 11.7684956,4.64707965 C11.4245575,4.85110619 11.0434513,4.99911504 10.6381858,5.07889381 C10.3134956,4.73309735 9.85088496,4.51699115 9.33862832,4.51699115 Z" id="Combined-Shape"></path>
                </g>
            </g>
        </g>
    </g>
</svg>